<svg xmlns="http://www.w3.org/2000/svg" width="165.889" height="23.542"><g id="Group_96" data-name="Group 96" transform="translate(-36.703 -50.52)"><path id="Path_1" data-name="Path 1" d="M36.7 50.52h9c7.018 0 10.463 3.732 10.463 11.484 0 4.275-1.34 7.5-3.732 9.41-2.233 1.787-4.721 2.042-8.007 2.042H36.7zm8.422 18.788c4.37 0 6.22-2.137 6.22-7.3 0-5.1-1.754-7.464-5.646-7.464h-4.37v14.764z"/><path id="Path_2" data-name="Path 2" d="M103.542 66.1c5.327 0 8.581 3.413 8.581 9.059s-3.253 9.059-8.581 9.059-8.581-3.413-8.581-9.059 3.254-9.059 8.581-9.059zm0 14.323c2.52 0 3.956-1.882 3.956-5.264s-1.435-5.231-3.956-5.231-3.987 1.85-3.987 5.231 1.467 5.263 3.987 5.263z" transform="translate(-38.099 -10.188)"/><path id="Path_3" data-name="Path 3" d="M150.189 78.125c.064 1.722 1.212 2.552 3.541 2.552 1.818 0 2.775-.638 2.775-1.69 0-1.468-1.467-1.372-4.466-2.137-3.987-1.021-5.869-2.233-5.869-5.1 0-3.413 2.616-5.646 6.954-5.646 4.561 0 7.241 2.137 7.4 5.774h-4.4c-.064-1.435-1.117-2.264-2.967-2.264-1.723 0-2.552.51-2.552 1.563 0 1.18 1.4 1.308 4.625 2.073 3.924.925 5.838 2.01 5.838 5.072 0 3.828-2.743 5.9-7.943 5.9-4.721 0-7.464-2.265-7.464-5.9v-.191z" transform="translate(-71.254 -10.188)"/><path id="Path_4" data-name="Path 4" d="M192.763 67.007h4.437v2.009a6.219 6.219 0 015.136-2.456c3.732 0 5.583 1.946 5.583 5.838v11.547h-4.53v-10.24c0-2.3-.67-3.381-2.616-3.381a3.276 3.276 0 00-3.477 3.573v10.048h-4.53z" transform="translate(-102.057 -10.49)"/><path id="Path_5" data-name="Path 5" d="M248.08 66.1c5.327 0 8.581 3.413 8.581 9.059s-3.253 9.059-8.581 9.059-8.58-3.418-8.58-9.06 3.252-9.058 8.58-9.058zm0 14.323c2.52 0 3.955-1.882 3.955-5.264s-1.435-5.231-3.955-5.231-3.987 1.85-3.987 5.231 1.466 5.263 3.987 5.263z" transform="translate(-132.621 -10.188)"/><path id="Path_6" data-name="Path 6" d="M286.141 67.851h5.008L294.626 80l3.509-12.154h4.785l-6.061 16.938h-4.625z" transform="translate(-163.123 -11.334)"/><path id="Path_7" data-name="Path 7" d="M348.054 78.508c-.925 3.541-3.828 5.71-7.847 5.71-4.816 0-7.974-3.445-7.974-9.155 0-5.55 3.03-8.964 7.911-8.964 5.168 0 8.134 3.254 8.134 9.091 0 .383 0 .766-.032 1.18h-11.325c.127 2.648 1.308 4.019 3.509 4.019a3.009 3.009 0 003.094-1.882zm-4.466-5.1c-.064-2.3-1.244-3.509-3.349-3.509-1.946 0-3.126 1.212-3.317 3.509z" transform="translate(-193.265 -10.188)"/><path id="Path_8" data-name="Path 8" d="M381.825 67.007h4.434v2.009a6.219 6.219 0 015.136-2.456c3.732 0 5.582 1.946 5.582 5.838v11.547h-4.53v-10.24c0-2.3-.67-3.381-2.616-3.381a3.276 3.276 0 00-3.477 3.573v10.048h-4.53z" transform="translate(-225.697 -10.49)"/><path id="Path_9" data-name="Path 9" d="M434.032 76.271c-3.732 0-4.53-1.276-4.53-4.816V62.3h-2.233v-3.19h2.231v-4.626h4.5v4.625h2.616V62.3H434v9.378c0 .893.287 1.084 1.5 1.084h1.116v3.413c-1.245.032-2.106.096-2.584.096z" transform="translate(-255.415 -2.592)"/><path id="Path_10" data-name="Path 10" d="M461.165 84.25c-3.254 0-5.136-1.914-5.136-5.391 0-3.318 1.786-4.785 5.742-5.391 3.509-.542 4.721-.287 4.721-1.914 0-1.4-.829-1.914-2.775-1.914-1.85 0-2.839.766-2.839 2.106V72h-4.242v-.319c0-3.445 2.552-5.582 6.922-5.582 4.785 0 7.337 1.723 7.337 4.785v9.633c0 1.244.191 1.978.957 2.361v.765h-4.722a4.877 4.877 0 01-.51-2.105 6.1 6.1 0 01-5.455 2.712zm1.34-7.783c-1.435.415-2.137.957-2.137 2.265a2 2 0 002.233 2.042 3.613 3.613 0 003.956-3.86v-1.596a20.023 20.023 0 01-4.057 1.148z" transform="translate(-274.223 -10.188)"/><path id="Path_11" data-name="Path 11" d="M505.989 87.638a2.118 2.118 0 11-2.119 2.125 2.073 2.073 0 012.119-2.125zm0 3.812a1.691 1.691 0 10-1.651-1.687 1.6 1.6 0 001.651 1.687zm-.291-1.494v.674h-.5v-1.883h.751c.5 0 .874.124.874.617a.5.5 0 01-.345.514l.458.751h-.566l-.4-.674h-.27zm.375-.818h-.373v.427h.375c.164 0 .236-.093.236-.2a.221.221 0 00-.238-.227z" transform="translate(-305.509 -24.274)"/></g></svg>